<mxfile host="app.diagrams.net" modified="2024-11-02T10:12:31.627Z" agent="Mozilla/5.0 (Windows NT 10.0; Win64; x64) AppleWebKit/537.36 (KHTML, like Gecko) Chrome/130.0.0.0 Safari/537.36 Edg/130.0.0.0" version="24.4.0" etag="QzbuCuuuhYq476xXKlgs" type="github">
  <diagram name="第 1 页" id="HcZ0UvspFl_kMBBf2kDx">
    <mxGraphModel>
      <root>
        <mxCell id="0" />
        <mxCell id="1" parent="0" />
      </root>
    </mxGraphModel>
  </diagram>
</mxfile>
